<svg width="310" height="55" viewBox="0 0 310 55" fill="none" xmlns="http://www.w3.org/2000/svg">
<rect width="310" height="55" rx="5" fill="#FEE500"/>
<path opacity="0.902" fill-rule="evenodd" clip-rule="evenodd" d="M29 16C22.72 16 17 21.048 17 25.3187C17 28.5187 19.0773 31.3413 22.2413 33.0187L20.9107 37.9067C20.792 38.34 21.284 38.684 21.6613 38.4347L27.4973 34.5613C27.9893 34.6093 28.4907 34.6373 29 34.6373C35.6267 34.6373 41 30.4653 41 25.3187C41 21.048 35.6267 16 29 16Z" fill="black"/>
<path d="M121.68 20.36H123.3C123.3 25.58 121.54 30.38 115.06 33.6L114.16 32.32C119.88 29.5 121.68 25.46 121.68 20.54V20.36ZM115.14 20.36H122.66V21.7H115.14V20.36ZM121.42 24.84V26.12L114.5 26.8L114.24 25.32L121.42 24.84ZM126.22 18.46H127.9V36.56H126.22V18.46ZM127.44 25.8H130.78V27.18H127.44V25.8ZM140.078 20.36H141.698C141.698 25.58 139.938 30.38 133.458 33.6L132.558 32.32C138.278 29.5 140.078 25.46 140.078 20.54V20.36ZM133.538 20.36H141.058V21.7H133.538V20.36ZM139.818 24.84V26.12L132.898 26.8L132.638 25.32L139.818 24.84ZM144.618 18.46H146.298V36.56H144.618V18.46ZM145.838 25.8H149.178V27.18H145.838V25.8ZM158.117 28.7H159.777V33.2H158.117V28.7ZM158.957 19.66C162.777 19.66 165.517 21.52 165.517 24.4C165.517 27.28 162.777 29.14 158.957 29.14C155.137 29.14 152.377 27.28 152.377 24.4C152.377 21.52 155.137 19.66 158.957 19.66ZM158.957 20.98C156.077 20.98 153.977 22.34 153.977 24.4C153.977 26.46 156.077 27.82 158.957 27.82C161.817 27.82 163.917 26.46 163.917 24.4C163.917 22.34 161.817 20.98 158.957 20.98ZM150.797 32.88H167.177V34.26H150.797V32.88ZM174.82 32.96H191.2V34.34H174.82V32.96ZM182.14 29.08H183.8V33.54H182.14V29.08ZM176.8 19.82H189.18V25.3H178.5V28.92H176.86V23.96H187.54V21.16H176.8V19.82ZM176.86 28.22H189.6V29.58H176.86V28.22ZM194.979 20.4H206.619V21.74H194.979V20.4ZM193.219 32.54H209.559V33.92H193.219V32.54ZM205.739 20.4H207.359V22.2C207.359 24.52 207.359 27.1 206.679 31L205.019 30.84C205.739 27.14 205.739 24.44 205.739 22.2V20.4ZM224.757 18.5H226.437V31.7H224.757V18.5ZM214.817 34.8H226.977V36.16H214.817V34.8ZM214.817 30.34H216.457V35.26H214.817V30.34ZM216.737 19.74C219.437 19.74 221.437 21.58 221.437 24.2C221.437 26.8 219.437 28.66 216.737 28.66C214.037 28.66 212.017 26.8 212.017 24.2C212.017 21.58 214.037 19.74 216.737 19.74ZM216.737 21.18C214.977 21.18 213.637 22.42 213.637 24.2C213.637 25.96 214.977 27.2 216.737 27.2C218.497 27.2 219.837 25.96 219.837 24.2C219.837 22.42 218.497 21.18 216.737 21.18Z" fill="black"/>
</svg>
