<svg width="100" height="100" viewBox="0 0 100 100" fill="none" xmlns="http://www.w3.org/2000/svg">
<path fill-rule="evenodd" clip-rule="evenodd" d="M34.2498 10H65.7498V15.9063L77.5621 15.9063V21.8125H22.4369V15.9063L34.2498 15.9063V10ZM83.1871 21.8138H16.8119V27.7182H10.9066V35.5932H22.4368V33.3432H30.3118V35.5932H69.6875V33.3432H77.5626V35.5932H89.0943V27.7182H83.1871V21.8138ZM69.6875 35.5938V47.1245H77.5626V35.5938H95.0003V68.7814H89.0943V76.6558H10.9066V68.7814H5V35.5938H22.4368V47.1245H30.3118V35.5938H69.6875ZM16.8119 76.6577H83.1871V82.5639H77.563V88.187H65.7505V94.0933H51.9683V99.9996H16.8119V94.0933H22.7191V88.187H28.3441V82.5639H16.8119V76.6577ZM36.219 47.1263H63.7816V64.5639H57.8744V70.4681H42.1244V64.5639H36.219V47.1263Z" fill="black"/>
</svg>
