<svg width="270" height="270" viewBox="0 0 270 270" fill="none" xmlns="http://www.w3.org/2000/svg">
<g clip-path="url(#clip0_622_1553)">
<path fill-rule="evenodd" clip-rule="evenodd" d="M105.249 100H164.749V111.157L187.061 111.157V122.313H82.9363V111.157L105.249 111.157V100ZM197.686 122.315H72.3113V133.468H61.1568V148.343H82.9363V144.093H97.8113V148.343H172.187V144.093H187.062V148.343H208.844V133.468H197.686V122.315ZM172.187 148.344V170.124H187.062V148.344H220V211.032H208.844V225.905H61.1568V211.032H50V148.344H82.9363V170.124H97.8113V148.344H172.187ZM72.3113 225.909H197.686V237.065H187.063V247.687L164.751 247.687V258.843L138.718 258.843V269.999H72.3113V258.843L83.4693 258.843V247.687L94.0943 247.687V237.065H72.3113V225.909ZM108.969 170.128H161.032V203.065H149.874V214.218H120.124V203.065H108.969V170.128Z" fill="white"/>
<path fill-rule="evenodd" clip-rule="evenodd" d="M86.0323 -0.00292969H94.5485V10.6408H91.3551V12.771H88.1619V14.8989H86.0325V23.4148H77.5164V14.8989H75.3872V12.771H72.1936V10.6412H69V-0.00250244H77.5161V6.38392H78.5807H79.6453V8.51352H82.8394V6.38392H84.968H86.0323V-0.00292969Z" fill="white"/>
<path fill-rule="evenodd" clip-rule="evenodd" d="M201 -0.00292969H180.775V3.1905H177.582V20.2205H180.775V23.4151H201V17.028H201V12.7708H193.548V17.028H186.098V6.38417H201V-0.00292969Z" fill="white"/>
<path fill-rule="evenodd" clip-rule="evenodd" d="M105.193 -0.00292969H99.8709V3.1905H96.677V21.2849H99.8709V23.4133H105.193V23.4144H113.709V23.4133H119.031V21.2849H122.226V3.1905H119.031V-0.00292969H113.71H113.709H105.193H105.193ZM113.709 18.0918V6.38417H105.193V18.0918H113.709Z" fill="white"/>
<path fill-rule="evenodd" clip-rule="evenodd" d="M139.257 -0.00292969H147.773V20.2202H144.58V23.4151H126.483V20.2206H124.354V-0.00250244H131.806V17.028H139.257V-0.00292969Z" fill="white"/>
<path fill-rule="evenodd" clip-rule="evenodd" d="M166.936 -0.00292969H175.452V23.4133H166.936V21.285H162.677V18.092H159.484V14.8986H157.355V3.1905H161.614V6.38392H164.807V9.57686H166.936V-0.00292969ZM149.904 -0.00250244H157.355V23.4138H149.904V-0.00250244Z" fill="white"/>
<path fill-rule="evenodd" clip-rule="evenodd" d="M168.648 27.9941H141.513V39.2991H157.342V75.4753H170.91V30.2556H168.648V27.9941ZM177.694 30.2556H189V77.7363H186.738V79.9976H179.955V77.7363H177.694V30.2556ZM139.251 30.2556H141.513V37.0395H139.251V30.2556ZM168.648 77.7366V75.4754H159.603V77.7366H168.648ZM179.955 27.9941H186.739V30.2554H179.955V27.9941Z" fill="white"/>
<path fill-rule="evenodd" clip-rule="evenodd" d="M94.0254 27.9941H103.071V30.2556H105.332V57.3874H107.593V59.6459H109.855V61.9072H105.332V61.9088H112.116V64.1701H105.332V64.1702H114.377V66.4297H116.638V68.691H114.377V68.6926H116.639V70.9525V70.9538V73.212V73.2138V75.4733H105.332V73.2138H103.071V70.9538H100.81V68.6929H96.2868V70.9538H94.0255V73.2138H91.7642V75.4733H80.4578V73.2138V73.212V70.9538V70.9525V68.6926H82.7192V68.691H80.4578V66.4297H82.7192V64.1702H91.7639V64.1701H84.9802V61.9088H91.7639V61.9072H87.2417V59.6459H89.5029V57.3874H91.7639V55.127H91.7639V30.2556H94.0254V27.9941ZM89.5031 75.4754H82.7192V77.7366H89.5031V75.4754ZM107.593 75.4754H114.377V77.7366H107.593V75.4754ZM121.161 30.2556H132.468V77.7363H130.206V79.9976H123.422V77.7363H121.161V30.2556ZM130.206 27.9941H123.422V30.2554H130.206V27.9941ZM121.161 43.8209H112.116V46.0803H109.854V52.8642H112.116V55.1258H121.161V43.8209Z" fill="white"/>
</g>
<defs>
<clipPath id="clip0_622_1553">
<rect width="270" height="270" fill="white"/>
</clipPath>
</defs>
</svg>
