<svg width="100" height="100" viewBox="0 0 100 100" fill="none" xmlns="http://www.w3.org/2000/svg">
<path fill-rule="evenodd" clip-rule="evenodd" d="M23.2727 47.0103H48.8378V52.8034H32.5692V63.2306H23.2728V52.8034H23.2727V47.0103ZM48.8381 57.437H32.5693V63.2301H48.8381V57.437ZM39.5418 63.2305H48.8382V72.4994H39.5418V63.2305ZM39.5415 66.7067H23.2728V72.4998H39.5415V66.7067Z" fill="white"/>
<path fill-rule="evenodd" clip-rule="evenodd" d="M76.7268 47.0103H54.6478V50.4865H51.1621V69.0244H54.6478V72.5001H76.7268V67.8648H76.7271V60.9131H68.5928V65.5483H60.4585V53.962H76.7268V47.0103Z" fill="white"/>
<path fill-rule="evenodd" clip-rule="evenodd" d="M8 27.5H13.4193V31.5527H14.0969H14.7744V32.9033H16.8065V31.5527H18.1611H18.8386V27.5H24.258V34.2542H22.2256V35.6052H20.1936V36.9561H18.8387V42.3592H13.4193V36.9561H12.0647V35.6052H10.0324V34.2542H8V27.5Z" fill="white"/>
<path fill-rule="evenodd" clip-rule="evenodd" d="M92 27.5H79.129V29.5266H77.0967V40.3333H79.129V42.3587H92V38.3062H91.9999V35.605H87.258V38.3062H82.516V31.5525H92V27.5Z" fill="white"/>
<path fill-rule="evenodd" clip-rule="evenodd" d="M31.0323 27.5H27.6452V29.5266H25.6128V41.0087H27.6452V42.3592H31.0323V27.5ZM36.452 27.5H39.8389V29.5264H41.8713V41.0085H39.8389V42.3592H36.452V42.3595H31.0326V38.9824H36.4518V31.5525H31.0326V27.5H36.4518H36.452Z" fill="white"/>
<path fill-rule="evenodd" clip-rule="evenodd" d="M43.2256 27.5H47.9675V38.3062H52.7094V27.5H58.1287V40.333H56.0967V42.3587H44.5806V40.333H43.2256V27.5Z" fill="white"/>
<path fill-rule="evenodd" clip-rule="evenodd" d="M59.4839 27.5H64.2258V42.3592H59.4839V27.5ZM70.3226 27.5H75.742V42.3592H70.3226V41.0092H67.6127V38.9823H65.5806V36.956H64.226V29.5264H66.9357V31.5527H68.9677V33.5796H70.3226V27.5Z" fill="white"/>
</svg>
