<svg width="100" height="100" viewBox="0 0 100 100" fill="none" xmlns="http://www.w3.org/2000/svg">
<path fill-rule="evenodd" clip-rule="evenodd" d="M37.7498 15H62.2498V19.5938H37.7498V15ZM28.5621 19.594H71.4372V24.1877H28.5621V19.594ZM75.8122 24.1885H24.1871V28.7808H19.594V34.9058H28.5621V33.1558H34.6871V34.9058H65.3125V33.1558H71.4375V34.9058H80.4065V28.7808H75.8122V24.1885ZM65.3125 34.9065V43.8746H71.4375V34.9065H85.0001V60.719H80.4065V66.843H19.594V60.719H15V34.9065H28.5621V43.8746H34.6871V34.9065H65.3125ZM24.1871 66.8448H75.8122V71.4385H71.4379V75.8121H62.2504V80.4059H51.5309V84.9993H24.1871V80.4056H28.7816V75.8121H33.1566V71.4385H24.1871V66.8448ZM39.2815 43.876H60.719V57.4385H56.1246V62.0306H43.8746V57.4385H39.2815V43.876Z" fill="white"/>
</svg>
